<svg width="70" height="70" viewBox="0 0 70 70" fill="none" xmlns="http://www.w3.org/2000/svg">
<path fill-rule="evenodd" clip-rule="evenodd" d="M13 0H5V31H0V39H5V70H13V39L56 39V70H64V39H70V31H64V0H56V31L13 31V0ZM56 31H64V39H56V31ZM13 31V39H5V31H13ZM26.8984 20.082C26.5078 19.9258 26.1055 19.8477 25.6914 19.8477C25.2773 19.8477 24.875 19.9258 24.4844 20.082C24.0938 20.2383 23.7422 20.457 23.4297 20.7383C23.1172 21.0195 22.8672 21.3555 22.6797 21.7461C22.5 22.1289 22.4102 22.5508 22.4102 23.0117C22.4102 23.4727 22.5 23.8984 22.6797 24.2891C22.8672 24.6719 23.1172 25.0039 23.4297 25.2852C23.7422 25.5664 24.0938 25.7852 24.4844 25.9414C24.875 26.0977 25.2773 26.1758 25.6914 26.1758C26.1055 26.1758 26.5078 26.0977 26.8984 25.9414C27.2891 25.7852 27.6406 25.5664 27.9531 25.2852C28.2656 25.0039 28.5117 24.6719 28.6914 24.2891C28.8789 23.8984 28.9727 23.4727 28.9727 23.0117C28.9727 22.5508 28.8789 22.1289 28.6914 21.7461C28.5117 21.3555 28.2656 21.0195 27.9531 20.7383C27.6406 20.457 27.2891 20.2383 26.8984 20.082ZM25.2109 21.875C25.3906 21.8125 25.5508 21.7812 25.6914 21.7812C25.8398 21.7812 26 21.8125 26.1719 21.875C26.3438 21.9375 26.4922 22.0586 26.6172 22.2383C26.7422 22.4102 26.8047 22.668 26.8047 23.0117C26.8047 23.3477 26.7422 23.6055 26.6172 23.7852C26.4922 23.9648 26.3438 24.0859 26.1719 24.1484C26 24.2109 25.8398 24.2422 25.6914 24.2422C25.5508 24.2422 25.3906 24.2109 25.2109 24.1484C25.0391 24.0859 24.8906 23.9648 24.7656 23.7852C24.6406 23.6055 24.5781 23.3477 24.5781 23.0117C24.5781 22.668 24.6406 22.4102 24.7656 22.2383C24.8906 22.0586 25.0391 21.9375 25.2109 21.875ZM32.2188 20.7969V20.0234H30.2031V26H32.2188V22.3906C32.3281 22.2344 32.4414 22.1016 32.5586 21.9922C32.6836 21.875 32.8359 21.8164 33.0156 21.8164C33.2188 21.8164 33.3945 21.8789 33.543 22.0039C33.6992 22.1211 33.7773 22.3281 33.7773 22.625L33.7891 26H35.8047V22.3555C35.8984 22.2148 36.0078 22.0898 36.1328 21.9805C36.2656 21.8711 36.4219 21.8164 36.6016 21.8164C36.8047 21.8164 36.9805 21.8789 37.1289 22.0039C37.2852 22.1211 37.3633 22.3281 37.3633 22.625L37.375 26H39.3906V22.3086C39.3906 21.4961 39.1953 20.8828 38.8047 20.4688C38.4219 20.0547 37.9258 19.8477 37.3164 19.8477C36.9336 19.8477 36.5859 19.9531 36.2734 20.1641C35.9688 20.3672 35.7227 20.625 35.5352 20.9375C35.3555 20.5781 35.1094 20.3086 34.7969 20.1289C34.4844 19.9414 34.1289 19.8477 33.7305 19.8477C33.332 19.8477 33.0273 19.9414 32.8164 20.1289C32.6055 20.3164 32.4062 20.5391 32.2188 20.7969ZM45.2383 20.2227C44.8008 19.9727 44.3008 19.8477 43.7383 19.8477C43.1367 19.8477 42.5938 19.9961 42.1094 20.293C41.6328 20.5898 41.2539 20.9844 40.9727 21.4766C40.6992 21.9688 40.5625 22.5117 40.5625 23.1055C40.5625 23.582 40.6523 24.0117 40.832 24.3945C41.0117 24.7695 41.2578 25.0898 41.5703 25.3555C41.8828 25.6211 42.2344 25.8242 42.625 25.9648C43.0234 26.1055 43.4336 26.1758 43.8555 26.1758C44.3008 26.1758 44.6992 26.1133 45.0508 25.9883C45.4102 25.8633 45.6914 25.7383 45.8945 25.6133V23.8906C45.7305 23.9844 45.4805 24.0977 45.1445 24.2305C44.8164 24.3555 44.4258 24.418 43.9727 24.418C43.6367 24.418 43.3398 24.3477 43.082 24.207C42.8242 24.0664 42.6523 23.8516 42.5664 23.5625H46.6328V22.8711C46.6328 22.2539 46.5078 21.7227 46.2578 21.2773C46.0156 20.8242 45.6758 20.4727 45.2383 20.2227ZM43.0117 21.7227C43.1992 21.582 43.4219 21.5117 43.6797 21.5117C43.9453 21.5117 44.1836 21.582 44.3945 21.7227C44.6133 21.8555 44.7227 22.0625 44.7227 22.3438H42.6016C42.6875 22.0625 42.8242 21.8555 43.0117 21.7227Z" fill="#DFDFDF"/>
</svg>
